<svg width="22" height="22" viewBox="0 0 22 22" fill="none" xmlns="http://www.w3.org/2000/svg">
<path fill-rule="evenodd" clip-rule="evenodd" d="M21 11C21 16.52 16.52 21 11 21C5.48 21 1 16.52 1 11C1 5.48 5.48 1 11 1C16.52 1 21 5.48 21 11ZM8 13.25C8.69 13.25 9.25 12.69 9.25 12C9.25 11.31 8.69 10.75 8 10.75C7.31 10.75 6.75 11.31 6.75 12C6.75 12.69 7.31 13.25 8 13.25ZM12.75 12C12.75 11.31 13.31 10.75 14 10.75C14.69 10.75 15.25 11.31 15.25 12C15.25 12.69 14.69 13.25 14 13.25C13.31 13.25 12.75 12.69 12.75 12ZM16.5 7C13.6 7 11.06 5.44 9.66 3.12C10.09 3.05 10.54 3 11 3C13.9 3 16.44 4.56 17.84 6.88C17.41 6.95 16.96 7 16.5 7ZM3.42 8.46997C5.13 7.49997 6.45 5.91997 7.08 4.02997C5.37 4.99997 4.05 6.57997 3.42 8.46997ZM18.67 8.76C18.88 9.47 19 10.22 19 11C19 15.41 15.41 19 11 19C6.59 19 3 15.41 3 11C3 10.9829 3.00116 10.9659 3.0023 10.9492C3.00449 10.9171 3.00659 10.8864 3 10.86C5.6 9.88 7.69 7.87 8.74 5.31C10.58 7.56 13.37 9 16.5 9C17.25 9 17.97 8.91 18.67 8.76Z" fill="#0BCAD4"/>
<path d="M9.66 3.12L9.57967 2.6265L8.8499 2.74529L9.23191 3.37833L9.66 3.12ZM17.84 6.88L17.9203 7.3735L18.6501 7.25471L18.2681 6.62167L17.84 6.88ZM3.42 8.46997L2.94566 8.31185L2.53377 9.54753L3.6667 8.90487L3.42 8.46997ZM7.08 4.02997L7.55434 4.18808L7.96623 2.95241L6.8333 3.59507L7.08 4.02997ZM18.67 8.76L19.1495 8.61818L19.0181 8.17405L18.5652 8.2711L18.67 8.76ZM3.0023 10.9492L3.50114 10.9833L3.50114 10.9833L3.0023 10.9492ZM3 10.86L2.82365 10.3921L2.40691 10.5492L2.51493 10.9813L3 10.86ZM8.74 5.31L9.12706 4.99347L8.59583 4.34388L8.2774 5.12026L8.74 5.31ZM11 21.5C16.7961 21.5 21.5 16.7961 21.5 11H20.5C20.5 16.2439 16.2439 20.5 11 20.5V21.5ZM0.5 11C0.5 16.7961 5.20386 21.5 11 21.5V20.5C5.75614 20.5 1.5 16.2439 1.5 11H0.5ZM11 0.5C5.20386 0.5 0.5 5.20386 0.5 11H1.5C1.5 5.75614 5.75614 1.5 11 1.5V0.5ZM21.5 11C21.5 5.20386 16.7961 0.5 11 0.5V1.5C16.2439 1.5 20.5 5.75614 20.5 11H21.5ZM8.75 12C8.75 12.4139 8.41386 12.75 8 12.75V13.75C8.96614 13.75 9.75 12.9661 9.75 12H8.75ZM8 11.25C8.41386 11.25 8.75 11.5861 8.75 12H9.75C9.75 11.0339 8.96614 10.25 8 10.25V11.25ZM7.25 12C7.25 11.5861 7.58614 11.25 8 11.25V10.25C7.03386 10.25 6.25 11.0339 6.25 12H7.25ZM8 12.75C7.58614 12.75 7.25 12.4139 7.25 12H6.25C6.25 12.9661 7.03386 13.75 8 13.75V12.75ZM14 10.25C13.0339 10.25 12.25 11.0339 12.25 12H13.25C13.25 11.5861 13.5861 11.25 14 11.25V10.25ZM15.75 12C15.75 11.0339 14.9661 10.25 14 10.25V11.25C14.4139 11.25 14.75 11.5861 14.75 12H15.75ZM14 13.75C14.9661 13.75 15.75 12.9661 15.75 12H14.75C14.75 12.4139 14.4139 12.75 14 12.75V13.75ZM12.25 12C12.25 12.9661 13.0339 13.75 14 13.75V12.75C13.5861 12.75 13.25 12.4139 13.25 12H12.25ZM9.23191 3.37833C10.7178 5.84062 13.416 7.5 16.5 7.5V6.5C13.784 6.5 11.4022 5.03938 10.0881 2.86167L9.23191 3.37833ZM11 2.5C10.5045 2.5 10.0262 2.55381 9.57967 2.6265L9.74034 3.6135C10.1538 3.54619 10.5755 3.5 11 3.5V2.5ZM18.2681 6.62167C16.7822 4.15938 14.084 2.5 11 2.5V3.5C13.716 3.5 16.0978 4.96062 17.4119 7.13833L18.2681 6.62167ZM16.5 7.5C16.9955 7.5 17.4738 7.44619 17.9203 7.3735L17.7597 6.3865C17.3462 6.45381 16.9245 6.5 16.5 6.5V7.5ZM3.6667 8.90487C5.48239 7.87492 6.88462 6.19723 7.55434 4.18808L6.60566 3.87185C6.01537 5.64271 4.7776 7.12502 3.1733 8.03507L3.6667 8.90487ZM6.8333 3.59507C5.0176 4.62502 3.61537 6.30271 2.94566 8.31185L3.89434 8.62808C4.48462 6.85723 5.72239 5.37491 7.3267 4.46487L6.8333 3.59507ZM19.5 11C19.5 10.1683 19.372 9.37054 19.1495 8.61818L18.1905 8.90181C18.388 9.56945 18.5 10.2717 18.5 11H19.5ZM11 19.5C15.6861 19.5 19.5 15.6861 19.5 11H18.5C18.5 15.1339 15.1339 18.5 11 18.5V19.5ZM2.5 11C2.5 15.6861 6.31386 19.5 11 19.5V18.5C6.86614 18.5 3.5 15.1339 3.5 11H2.5ZM2.50346 10.9152C2.50251 10.9291 2.5 10.9631 2.5 11H3.5C3.5 11.0026 3.49992 11.003 3.50007 11C3.50025 10.9965 3.50053 10.9923 3.50114 10.9833L2.50346 10.9152ZM2.51493 10.9813C2.50466 10.9402 2.50446 10.91 2.50444 10.9033C2.50444 10.899 2.50458 10.8972 2.50445 10.8997C2.5043 10.9027 2.50406 10.9064 2.50346 10.9152L3.50114 10.9833C3.50182 10.9733 3.51462 10.8569 3.48507 10.7387L2.51493 10.9813ZM8.2774 5.12026C7.28094 7.54972 5.29592 9.46027 2.82365 10.3921L3.17635 11.3279C5.90408 10.2997 8.09906 8.19027 9.2026 5.49974L8.2774 5.12026ZM16.5 8.5C13.5273 8.5 10.8768 7.13308 9.12706 4.99347L8.35294 5.62652C10.2832 7.98691 13.2127 9.5 16.5 9.5V8.5ZM18.5652 8.2711C17.8941 8.41491 17.2095 8.5 16.5 8.5V9.5C17.2905 9.5 18.0459 9.40509 18.7748 9.2489L18.5652 8.2711Z" fill="black"/>
</svg>
